<?xml version="1.0" encoding="UTF-8"?>
<svg id="_レイヤー_1" xmlns="http://www.w3.org/2000/svg" version="1.1" viewBox="0 0 1041 1173.01">
  <!-- Generator: Adobe Illustrator 29.6.1, SVG Export Plug-In . SVG Version: 2.1.1 Build 9)  -->
  <defs>
    <style>
      .st0 {
        fill: #8f8dc9;
        isolation: isolate;
        opacity: .1;
      }
    </style>
  </defs>
  <path class="st0" d="M188.37,1173.02c-8.16,0-16.5-.29-25.02-.87-67.18-4.58-125.49-26.01-154.27-38.37-7.61-3.27-11.13-12.09-7.86-19.7,3.27-7.61,12.09-11.13,19.7-7.86,89.07,38.27,212.63,58.64,292.26,1.06,65.17-47.13,93.44-140.03,84.1-276.27-22.12,2.43-64.09,4.99-110.93-2.58-40.15-6.49-75.53-19.12-105.18-37.55-37.54-23.34-65.77-55.91-83.89-96.8-30.78-69.45-13.1-187.1-10.37-203.82-.76-11.66-4.33-74.68,2.28-141.37,10.14-102.31,39.1-160.32,86.06-172.42,73.44-18.93,154.71,23.33,180.07,38.16l70.78-39.6c3.79-13.82,13.96-47.6,31.26-81.8,13.24-26.17,27.97-47.19,43.78-62.46,21.14-20.42,44.31-30.77,68.86-30.77,41.76,0,87.14,26.9,134.9,79.97,26.56,29.51,46.15,58.69,54.09,71.12,13.64,2.16,44.04,8.43,78.71,24.93,61.32,29.17,107.05,76.79,132.25,137.7,14.12,34.14,20.11,71.73,17.79,111.71-1.83,31.59-8.82,64.72-20.78,98.47-14.19,40.04-31.85,71.18-41.55,86.78l110.87,104.4c6.03,5.68,6.32,15.17.64,21.2-5.68,6.03-15.17,6.32-21.2.64l-120-113c-5.44-5.12-6.28-13.47-1.97-19.58.25-.36,26.4-37.79,45.21-91.21,16.99-48.27,31.36-120.05,3.27-187.95-22.49-54.37-61.66-95.28-116.44-121.61-41.5-19.95-76.88-23.61-77.23-23.64-4.73-.46-8.98-3.14-11.42-7.21-.22-.36-22.38-37.02-54.85-73.03-41.12-45.59-79.95-69.69-112.29-69.69-38.75,0-67.96,41.51-85.64,76.33-20.55,40.47-30.68,81.78-30.78,82.19-.98,4.06-3.61,7.53-7.26,9.57l-84,47c-4.87,2.72-10.85,2.52-15.52-.53-.89-.58-90.47-58.01-164.06-39.04-32.5,8.38-55.11,60.22-63.66,145.99-6.96,69.79-2.17,137.72-2.13,138.4.09,1.22.03,2.44-.18,3.65-.21,1.22-20.85,123.4,7.93,188.36,28.41,64.1,84.13,103.39,165.63,116.76,62.56,10.27,117.45.65,118,.55,4.15-.74,8.42.29,11.77,2.85,3.35,2.56,5.47,6.41,5.84,10.61,13.64,156.07-18.39,263.36-95.18,318.89-38.08,27.54-85.9,41.43-142.39,41.44Z"/>
</svg>